<?xml version="1.0" standalone="no"?>
<!DOCTYPE svg PUBLIC "-//W3C//DTD SVG 20010904//EN"
 "http://www.w3.org/TR/2001/REC-SVG-20010904/DTD/svg10.dtd">
<svg version="1.0" xmlns="http://www.w3.org/2000/svg"
 width="3348.000000pt" height="3348.000000pt" viewBox="0 0 3348.000000 3348.000000"
 preserveAspectRatio="xMidYMid meet">
<metadata>
Created by potrace 1.14, written by Peter Selinger 2001-2017
</metadata>
<g transform="translate(0.000000,3348.000000) scale(0.100000,-0.100000)"
fill="#000000" stroke="none">
<path d="M8468 33425 c-1 -1 -54 -6 -117 -10 -63 -4 -122 -8 -131 -10 -9 -2
-41 -6 -71 -10 -76 -8 -121 -15 -148 -20 -13 -2 -49 -7 -80 -11 -31 -3 -59 -8
-63 -11 -4 -2 -23 -6 -42 -8 -177 -23 -696 -174 -887 -258 -19 -8 -59 -25 -89
-37 -30 -12 -77 -32 -105 -45 -27 -12 -57 -25 -65 -29 -8 -3 -22 -10 -30 -15
-8 -5 -58 -30 -110 -56 -111 -55 -180 -93 -270 -147 -95 -57 -99 -60 -152 -95
-26 -18 -50 -33 -53 -33 -11 0 -302 -211 -360 -261 -11 -10 -69 -59 -130 -111
-159 -136 -411 -388 -520 -522 -16 -21 -39 -48 -50 -60 -43 -49 -155 -193
-195 -252 -8 -12 -39 -56 -67 -97 -29 -42 -53 -80 -53 -86 0 -5 -4 -11 -8 -13
-17 -6 -82 -119 -76 -130 4 -6 3 -8 -3 -5 -6 4 -18 -8 -27 -26 -9 -17 -26 -48
-38 -67 -68 -115 -199 -381 -267 -545 -5 -11 -17 -39 -26 -63 -10 -23 -18 -49
-18 -57 0 -8 -4 -15 -8 -15 -7 0 -22 -53 -19 -66 1 -4 -2 -10 -7 -13 -5 -3
-24 -53 -42 -111 -18 -58 -37 -116 -42 -129 -43 -105 -145 -583 -164 -771 -4
-30 -8 -71 -11 -90 -3 -19 -7 -62 -9 -95 -3 -33 -7 -72 -10 -87 -3 -18 0 -28
8 -28 9 0 8 -3 -1 -9 -16 -10 -21 -389 -8 -606 5 -77 9 -148 9 -157 1 -10 4
-18 7 -18 3 0 6 -19 7 -43 2 -71 11 -147 28 -252 22 -136 23 -143 29 -163 5
-17 13 -53 22 -107 3 -16 21 -88 40 -160 19 -71 36 -139 39 -150 7 -29 110
-331 133 -390 40 -101 91 -224 101 -242 5 -10 37 -74 70 -143 70 -146 145
-285 208 -382 15 -24 28 -45 28 -48 0 -6 86 -133 94 -140 3 -3 12 -16 19 -30
7 -14 57 -84 111 -157 112 -149 111 -148 168 -209 22 -24 39 -44 37 -44 -18 0
280 -308 417 -431 144 -130 149 -134 354 -294 21 -16 61 -46 89 -65 28 -19 57
-41 64 -47 7 -7 20 -13 28 -13 8 0 14 -4 14 -8 0 -8 206 -140 290 -186 19 -11
58 -32 85 -48 58 -32 311 -158 370 -183 199 -85 465 -181 625 -225 25 -7 56
-16 70 -20 14 -5 48 -13 75 -20 28 -6 66 -15 85 -21 57 -15 330 -67 390 -74
55 -6 184 -22 250 -30 34 -5 177 -14 290 -19 30 -2 61 2 69 8 11 8 13 8 8 0
-11 -19 434 -5 623 20 46 6 92 12 166 22 23 2 53 7 65 10 13 2 40 7 59 10 89
14 290 58 387 85 59 16 118 32 129 34 12 3 82 25 155 50 74 25 143 48 154 51
23 6 14 20 143 -226 41 -80 85 -161 96 -180 12 -19 28 -48 36 -65 8 -16 19
-33 25 -37 5 -4 6 -8 1 -8 -5 0 -4 -6 2 -12 5 -7 34 -60 65 -118 30 -58 70
-134 89 -170 114 -212 203 -381 272 -512 22 -42 44 -74 49 -71 6 3 7 1 3 -6
-4 -6 1 -26 12 -44 11 -17 49 -88 84 -157 36 -69 75 -142 87 -163 12 -21 38
-71 59 -110 20 -40 41 -75 47 -79 5 -4 6 -8 1 -8 -5 0 -4 -6 2 -12 5 -7 33
-58 62 -113 82 -158 94 -180 103 -186 5 -3 9 -12 11 -20 1 -8 8 -25 16 -39 24
-44 82 -154 107 -205 14 -27 30 -53 37 -57 6 -4 8 -8 4 -8 -4 0 13 -35 36 -77
24 -43 64 -118 90 -168 48 -91 81 -154 172 -325 28 -52 77 -144 109 -205 32
-60 69 -130 83 -155 13 -25 47 -88 75 -140 27 -52 68 -129 90 -170 22 -41 62
-118 90 -170 27 -52 65 -124 85 -160 19 -36 60 -112 90 -170 30 -58 65 -123
77 -145 13 -22 48 -87 78 -145 30 -58 71 -136 92 -175 21 -38 62 -117 92 -175
31 -58 66 -123 78 -145 24 -43 82 -151 135 -252 17 -35 36 -60 41 -57 5 3 6
-2 3 -11 -4 -8 -2 -21 4 -28 9 -11 62 -110 132 -245 18 -35 31 -64 29 -65 -16
-11 -86 -63 -96 -72 -6 -5 -26 -21 -44 -35 -257 -197 -567 -533 -758 -823 -25
-39 -48 -75 -51 -79 -3 -4 -48 6 -100 23 -52 17 -103 32 -113 34 -9 2 -21 6
-26 10 -8 4 -337 112 -366 119 -5 2 -17 6 -25 9 -14 5 -429 140 -440 143 -3 0
-12 4 -20 7 -8 4 -26 8 -40 9 -14 2 -27 6 -30 9 -3 3 -140 50 -305 103 -165
54 -317 104 -338 112 -20 7 -40 14 -45 15 -4 1 -16 5 -27 9 -11 4 -36 11 -55
15 -19 4 -39 11 -45 15 -8 5 -80 28 -115 36 -3 0 -12 4 -20 7 -8 3 -49 17 -90
31 -41 13 -223 72 -404 131 -181 59 -334 108 -340 110 -6 1 -18 5 -26 8 -60
25 -355 115 -362 111 -4 -3 -8 -1 -8 5 0 8 -49 24 -65 22 -3 -1 -19 6 -35 14
-17 9 -30 13 -30 9 0 -4 -6 -2 -12 4 -7 5 -29 13 -48 17 -19 4 -39 11 -45 14
-5 4 -30 13 -55 20 -25 6 -54 16 -65 20 -49 20 -89 30 -96 25 -5 -3 -9 -1 -9
5 0 5 -15 12 -32 16 -18 3 -42 10 -53 15 -11 4 -128 43 -260 86 -132 42 -301
97 -375 122 -74 24 -139 45 -145 47 -5 1 -17 5 -25 8 -8 3 -123 40 -255 83
-132 42 -298 96 -370 119 -189 61 -220 70 -224 67 -2 -2 -7 0 -10 5 -5 7 -67
30 -106 39 -5 1 -59 19 -120 39 -60 21 -114 38 -120 40 -5 1 -18 5 -27 9 -9 4
-22 9 -30 10 -7 1 -51 15 -98 30 -47 15 -89 29 -95 30 -5 2 -17 6 -25 9 -8 3
-86 29 -173 57 l-158 52 7 41 c33 214 37 575 9 782 -2 17 -7 53 -10 81 -3 28
-8 62 -10 75 -18 93 -27 138 -35 164 -5 17 -11 41 -14 55 -8 48 -74 267 -95
315 -5 11 -19 47 -32 80 -81 218 -252 518 -413 725 -135 174 -391 435 -500
509 -11 8 -23 18 -26 22 -13 18 -275 198 -335 230 -259 139 -450 224 -630 277
-55 17 -113 35 -130 42 -16 6 -32 11 -35 11 -10 -2 -76 11 -105 20 -16 5 -46
11 -65 13 -19 3 -46 8 -60 11 -14 3 -50 8 -80 11 -30 3 -57 7 -60 9 -13 8
-232 19 -375 19 -167 0 -285 -8 -395 -26 -36 -5 -76 -11 -90 -13 -49 -5 -116
-17 -170 -32 -65 -17 -84 -22 -108 -27 -61 -14 -231 -67 -277 -87 -11 -4 -49
-20 -85 -34 -122 -49 -243 -106 -248 -117 -2 -5 -12 -8 -21 -8 -10 0 -29 -8
-42 -17 -29 -21 -51 -35 -101 -62 -58 -32 -193 -122 -196 -132 -2 -5 -8 -9
-14 -9 -11 0 -112 -77 -205 -156 -60 -51 -275 -264 -329 -325 -95 -110 -284
-374 -284 -398 0 -5 -4 -11 -8 -13 -12 -5 -92 -149 -145 -258 -52 -109 -127
-297 -152 -385 -10 -33 -20 -67 -23 -75 -3 -8 -6 -19 -7 -25 -2 -5 -10 -35
-19 -65 -8 -30 -18 -67 -21 -82 -14 -73 -16 -84 -22 -103 -3 -11 -7 -38 -8
-60 -2 -22 -5 -47 -8 -55 -3 -8 -8 -37 -11 -65 -3 -27 -9 -79 -13 -115 -15
-132 -8 -545 12 -660 2 -14 6 -43 10 -65 14 -93 17 -113 31 -175 8 -36 17 -76
20 -90 2 -14 8 -34 11 -45 4 -11 8 -27 10 -35 5 -19 5 -21 27 -95 9 -33 21
-69 25 -80 5 -11 23 -60 41 -110 67 -185 253 -536 347 -655 6 -8 38 -51 71
-95 141 -189 424 -478 447 -457 5 4 5 2 1 -5 -3 -7 7 -21 26 -34 39 -28 42
-30 93 -74 22 -19 44 -35 48 -35 4 0 17 -9 29 -20 30 -27 131 -93 249 -163 97
-57 308 -159 396 -193 73 -27 268 -94 293 -99 8 -2 49 -13 90 -23 42 -11 93
-23 114 -26 21 -4 41 -8 45 -10 5 -4 96 -18 196 -32 184 -24 681 -24 757 0 12
4 107 17 136 19 6 0 12 3 12 6 0 3 12 6 28 7 30 1 54 6 152 29 75 18 67 16
185 50 50 15 95 30 100 33 6 4 18 8 28 9 10 2 28 8 40 15 12 7 27 13 34 14 25
4 293 127 293 134 0 4 10 10 23 14 32 8 115 56 265 155 125 83 160 109 297
225 64 55 263 251 310 307 73 87 148 183 184 236 24 35 47 65 51 68 5 3 50 -8
101 -25 50 -16 99 -30 108 -30 9 0 21 -4 27 -9 10 -10 206 -72 215 -68 3 1 12
-3 20 -9 8 -6 34 -16 59 -24 25 -7 117 -37 205 -65 88 -29 198 -64 245 -79 47
-15 92 -30 100 -33 17 -7 12 -6 70 -22 25 -7 54 -17 65 -21 114 -45 616 -200
627 -194 6 4 8 3 5 -3 -4 -7 147 -63 213 -79 3 0 12 -3 20 -7 28 -10 296 -97
316 -102 10 -2 73 -23 139 -45 66 -22 127 -42 135 -44 8 -2 22 -6 30 -9 8 -3
87 -29 175 -58 88 -28 212 -68 275 -89 63 -21 230 -75 370 -120 140 -45 264
-85 275 -90 23 -10 91 -31 108 -34 7 -1 17 -4 22 -8 14 -8 100 -31 101 -27 0
2 7 -1 15 -7 8 -6 28 -15 44 -19 44 -12 45 -12 50 -15 3 -1 8 -3 13 -4 15 -3
118 -38 137 -46 17 -7 159 -52 175 -56 3 0 12 -3 20 -7 14 -5 511 -167 747
-242 61 -20 120 -38 131 -40 11 -2 28 -8 38 -13 17 -9 199 -70 228 -77 6 -1
18 -5 26 -8 8 -3 33 -11 55 -17 22 -6 49 -15 60 -20 17 -7 279 -92 295 -95 3
0 76 -25 163 -54 88 -29 165 -50 173 -47 8 3 12 2 9 -3 -3 -6 16 -16 42 -24
27 -7 47 -18 47 -23 -1 -5 -5 -31 -9 -58 -3 -27 -8 -52 -9 -55 -2 -3 -7 -40
-11 -81 -4 -41 -9 -78 -11 -81 -8 -13 -18 -225 -18 -379 0 -155 10 -374 20
-423 2 -12 6 -42 10 -67 3 -25 10 -72 16 -105 5 -33 11 -69 12 -80 2 -11 6
-29 9 -40 3 -11 8 -31 11 -45 2 -14 10 -47 16 -75 6 -27 14 -59 16 -71 8 -44
90 -299 117 -364 6 -14 11 -27 12 -30 5 -15 19 -49 31 -77 8 -17 14 -34 14
-38 0 -14 160 -327 216 -422 10 -17 16 -33 14 -36 -3 -2 -33 -25 -67 -51 -35
-26 -63 -51 -63 -57 0 -5 -5 -9 -11 -9 -6 0 -26 -12 -44 -27 -18 -16 -65 -54
-106 -86 -229 -178 -354 -280 -352 -288 2 -5 0 -8 -5 -8 -18 3 -29 -3 -58 -29
-17 -15 -45 -38 -64 -52 -28 -21 -215 -169 -325 -257 -16 -13 -167 -132 -335
-264 -325 -256 -330 -260 -431 -341 -36 -29 -78 -62 -93 -73 -16 -11 -33 -25
-40 -30 -6 -6 -39 -32 -73 -59 -35 -27 -60 -53 -56 -59 3 -6 1 -7 -6 -3 -6 4
-24 -3 -40 -16 -84 -69 -208 -168 -261 -208 -19 -14 -52 -40 -74 -59 -22 -18
-87 -69 -143 -113 -60 -46 -100 -84 -97 -90 4 -7 2 -8 -5 -4 -9 6 -92 -52
-121 -84 -3 -3 -21 -17 -40 -30 -19 -14 -44 -32 -55 -42 -11 -9 -40 -32 -65
-52 -25 -20 -50 -40 -56 -45 -6 -5 -42 -33 -80 -62 -38 -30 -76 -60 -84 -67
-13 -11 -126 -100 -229 -180 -19 -15 -70 -56 -115 -92 -105 -84 -95 -76 -141
-111 -22 -16 -48 -37 -58 -45 -17 -14 -22 -12 -65 28 -26 24 -58 53 -71 64
-13 10 -33 28 -45 39 -11 11 -57 49 -101 85 -44 35 -82 67 -85 70 -12 12 -158
118 -187 135 -18 11 -33 23 -33 27 0 4 -5 8 -11 8 -6 0 -28 13 -49 30 -21 16
-41 30 -45 30 -3 0 -21 11 -39 25 -18 14 -36 25 -40 25 -4 0 -22 11 -40 25
-18 14 -35 25 -38 25 -3 0 -35 17 -69 38 -104 62 -279 153 -279 145 0 -4 -4
-3 -8 3 -4 5 -23 17 -42 26 -136 63 -187 85 -280 123 -158 65 -372 136 -389
130 -9 -3 -12 -3 -8 2 7 6 -108 45 -173 58 -14 2 -41 9 -60 15 -38 11 -194 46
-249 55 -19 3 -37 7 -40 9 -3 2 -33 7 -66 11 -32 3 -62 8 -65 10 -3 1 -27 6
-55 9 -27 4 -81 11 -120 16 -268 36 -815 45 -1006 16 -13 -2 -53 -7 -89 -11
-414 -40 -949 -177 -1317 -335 -13 -6 -35 -15 -50 -21 -16 -6 -40 -18 -54 -25
-14 -7 -28 -11 -31 -8 -3 2 -11 -2 -18 -11 -7 -8 -17 -15 -22 -15 -32 0 -415
-206 -562 -302 -49 -32 -90 -58 -92 -58 -3 0 -196 -137 -229 -162 -194 -150
-317 -257 -309 -269 3 -5 -1 -7 -8 -4 -7 3 -69 -50 -143 -123 -151 -150 -249
-252 -241 -252 3 0 -10 -15 -27 -33 -18 -17 -55 -59 -82 -92 -28 -33 -52 -62
-55 -65 -3 -3 -25 -32 -50 -65 -25 -33 -49 -65 -55 -72 -5 -6 -20 -27 -33 -45
-13 -18 -48 -68 -78 -111 -30 -42 -54 -82 -54 -87 0 -6 -4 -10 -8 -10 -5 0
-15 -12 -23 -27 -8 -15 -29 -50 -46 -78 -18 -27 -33 -55 -33 -61 0 -7 -4 -14
-8 -16 -13 -5 -85 -137 -176 -323 -79 -162 -91 -187 -96 -210 -1 -5 -5 -15
-10 -20 -7 -9 -53 -121 -55 -135 0 -3 -6 -14 -11 -25 -14 -25 -94 -260 -128
-375 -60 -203 -114 -450 -141 -645 -3 -23 -7 -50 -9 -61 -2 -11 -7 -54 -11
-95 -3 -41 -8 -81 -10 -89 -2 -8 -7 -62 -10 -119 -3 -57 -8 -108 -11 -113 -3
-4 0 -8 6 -8 6 0 8 -5 4 -12 -12 -19 -12 -88 0 -88 7 0 7 -3 -1 -8 -15 -9 -15
-290 -1 -309 5 -6 5 -14 -2 -18 -6 -3 -8 -9 -6 -13 2 -4 7 -52 11 -107 6 -106
8 -125 19 -220 10 -80 15 -123 20 -154 3 -14 10 -60 16 -101 6 -41 15 -88 20
-105 5 -16 12 -48 15 -70 3 -22 7 -47 10 -55 2 -8 6 -27 9 -41 2 -15 16 -71
31 -125 15 -55 29 -106 30 -114 24 -110 199 -587 226 -614 5 -6 9 -15 9 -22 0
-18 101 -228 114 -236 6 -4 8 -8 4 -8 -7 0 59 -130 71 -140 3 -3 21 -34 40
-70 87 -167 367 -568 486 -696 5 -6 33 -38 60 -70 51 -60 386 -399 440 -444
17 -14 68 -57 115 -95 47 -38 88 -74 92 -80 4 -5 8 -6 8 -1 0 6 6 3 12 -6 14
-16 145 -115 218 -163 25 -17 50 -33 55 -38 64 -49 318 -198 480 -282 389
-202 884 -374 1295 -449 14 -3 39 -7 55 -10 17 -3 46 -8 65 -11 19 -3 62 -10
95 -15 33 -5 87 -12 120 -15 33 -4 66 -8 72 -10 80 -26 846 -26 1003 -1 14 3
50 7 81 11 31 3 67 8 80 10 13 3 44 7 69 10 24 2 78 11 120 20 41 8 86 17 100
19 14 2 59 12 100 21 41 9 82 18 90 20 8 1 40 10 70 19 30 9 58 16 62 17 4 0
22 5 40 10 18 6 40 12 48 14 61 14 226 71 232 80 4 5 8 7 8 3 0 -6 30 5 185
64 28 10 58 22 68 25 9 3 17 9 17 12 0 4 6 8 13 8 53 0 497 234 747 393 57 36
211 143 224 155 6 5 38 30 71 55 50 37 117 91 187 149 128 107 457 430 458
449 0 7 5 10 10 7 6 -3 10 1 10 9 0 9 4 16 9 16 26 0 307 366 446 582 6 8 17
26 26 39 63 96 174 289 172 299 -1 3 4 12 11 20 14 15 106 203 146 295 11 28
25 59 30 70 21 46 48 112 59 145 7 19 17 44 22 55 21 48 81 230 109 330 5 17
20 70 34 118 14 49 27 100 30 115 3 15 14 65 25 112 10 47 22 101 25 120 10
63 17 95 22 113 3 10 0 17 -8 17 -9 0 -10 3 -2 8 17 11 39 160 60 412 15 180
7 736 -12 833 -2 11 -6 45 -9 76 -4 31 -8 67 -11 81 -2 14 -6 50 -10 80 -3 30
-8 57 -9 60 -2 3 -11 50 -20 105 -9 55 -18 105 -19 110 -6 18 -8 24 -23 87 -8
35 -16 70 -18 78 -2 8 -13 49 -24 90 -12 41 -23 84 -26 96 -14 60 -128 390
-155 449 -5 11 -23 54 -40 95 -50 119 -182 385 -250 503 -34 60 -59 112 -54
116 5 4 37 29 72 56 34 26 62 52 62 56 0 5 4 9 10 9 10 0 179 129 243 186 21
19 42 34 45 34 4 0 27 18 51 40 24 22 46 40 49 40 4 0 52 38 136 107 11 9 39
31 63 49 24 19 50 39 57 46 8 7 26 22 42 33 15 11 53 40 84 65 31 25 70 55 86
68 37 29 249 196 292 231 58 46 70 56 98 76 29 21 181 142 200 160 6 6 26 21
44 35 104 78 287 224 300 239 8 9 18 17 21 17 4 -1 300 230 333 259 6 6 40 33
76 60 36 27 74 57 85 66 34 29 124 99 295 234 91 71 167 132 170 135 3 3 32
25 65 50 33 25 62 47 65 50 3 3 48 39 100 80 52 41 102 81 110 87 8 7 54 43
101 80 47 38 166 131 264 208 98 77 189 150 203 163 32 28 40 28 76 -3 16 -14
33 -25 37 -25 4 0 14 -6 21 -14 11 -10 148 -102 244 -163 128 -81 371 -200
554 -271 97 -37 341 -115 400 -126 14 -3 50 -12 80 -20 30 -8 69 -17 85 -20
17 -3 68 -12 115 -20 47 -8 112 -18 145 -21 32 -4 62 -8 65 -10 3 -2 52 -6
109 -9 58 -3 106 -8 108 -10 3 -2 6 -21 8 -43 2 -21 17 -141 34 -268 17 -126
33 -246 35 -265 3 -19 7 -48 10 -65 2 -16 7 -57 11 -90 3 -33 8 -67 10 -75 2
-8 6 -40 10 -70 3 -30 7 -64 9 -75 2 -11 7 -45 10 -75 4 -30 9 -71 12 -90 8
-57 12 -82 18 -141 4 -31 8 -65 10 -75 3 -18 10 -69 21 -154 2 -19 6 -51 9
-70 3 -19 10 -75 16 -125 13 -103 18 -140 24 -175 3 -14 7 -50 11 -80 3 -30 7
-64 10 -75 2 -11 4 -35 4 -53 1 -24 5 -31 13 -26 10 6 10 5 1 -8 -7 -8 -11
-17 -9 -19 4 -4 31 -186 41 -279 2 -19 7 -55 10 -80 4 -25 8 -58 10 -73 2 -15
7 -44 9 -65 3 -20 8 -55 11 -77 5 -42 11 -94 19 -154 3 -20 8 -60 11 -90 4
-30 8 -63 11 -74 2 -10 6 -45 10 -76 3 -31 8 -65 10 -76 2 -11 6 -40 9 -65 14
-110 26 -207 30 -230 2 -14 7 -50 10 -80 3 -30 8 -66 10 -80 2 -14 9 -61 15
-105 10 -76 17 -131 25 -183 1 -12 6 -50 10 -85 4 -34 9 -70 11 -81 2 -10 6
-44 9 -75 4 -31 8 -67 11 -81 2 -14 11 -79 19 -145 16 -128 24 -185 30 -225 2
-14 6 -43 9 -65 21 -161 28 -215 32 -250 3 -22 8 -51 10 -65 3 -14 7 -47 9
-75 3 -27 10 -79 15 -115 5 -36 12 -83 14 -105 8 -59 16 -118 20 -141 2 -11 7
-51 11 -89 3 -38 8 -72 10 -75 1 -3 6 -34 9 -70 4 -36 8 -77 11 -90 5 -25 12
-74 21 -150 3 -25 8 -56 10 -70 3 -24 -4 -29 -77 -63 -44 -20 -84 -37 -90 -37
-5 0 -9 -5 -9 -12 0 -6 -3 -8 -6 -5 -6 6 -214 -98 -224 -113 -3 -3 -12 -10
-20 -14 -8 -4 -24 -12 -35 -19 -11 -7 -41 -25 -67 -41 -27 -15 -48 -32 -48
-37 0 -5 -5 -9 -11 -9 -9 0 -165 -113 -219 -159 -142 -122 -232 -210 -333
-323 -187 -211 -346 -449 -465 -700 -72 -150 -124 -286 -116 -301 4 -6 3 -8
-1 -4 -19 17 -125 -373 -139 -513 -2 -19 -6 -42 -9 -50 -3 -8 -8 -42 -12 -75
-3 -33 -8 -89 -12 -125 -13 -134 -8 -388 12 -595 9 -89 51 -306 79 -410 9 -33
24 -85 32 -115 8 -30 19 -57 25 -58 5 -2 7 -7 4 -12 -5 -8 0 -23 43 -136 52
-138 170 -375 254 -509 66 -105 190 -275 268 -366 104 -121 338 -346 414 -399
11 -8 30 -22 40 -32 30 -28 253 -178 264 -178 6 0 12 -4 14 -8 10 -27 342
-190 508 -250 30 -11 74 -27 98 -36 23 -9 59 -20 80 -25 20 -6 55 -15 77 -21
100 -28 288 -68 355 -75 30 -4 62 -9 70 -11 76 -25 576 -25 760 1 79 11 186
27 203 31 173 39 236 57 232 65 -4 5 1 6 9 3 19 -7 157 36 150 47 -3 5 1 6 9
4 12 -5 161 46 214 73 10 5 74 37 143 71 308 151 515 299 795 569 96 92 305
339 305 360 0 6 4 12 9 14 9 3 140 198 163 243 9 17 28 53 43 80 37 67 95 182
95 188 0 3 13 34 29 69 91 202 172 492 215 773 27 179 28 654 1 804 -1 9 -6
38 -9 64 -4 27 -9 59 -12 70 -2 12 -7 38 -10 57 -3 19 -10 37 -15 38 -5 2 -7
8 -4 12 12 20 -120 473 -143 490 -4 3 -9 14 -10 25 -5 25 -128 276 -179 365
-73 126 -125 200 -135 193 -7 -3 -8 -1 -4 5 5 9 -58 110 -83 132 -3 3 -33 39
-66 80 -70 87 -271 293 -365 372 -102 86 -237 188 -248 188 -6 0 -12 4 -14 9
-3 8 -182 121 -240 152 -98 51 -307 150 -323 153 -5 1 -14 4 -20 8 -22 14
-178 66 -335 112 -65 19 -169 42 -225 50 -22 4 -49 8 -60 10 -11 2 -42 7 -70
11 -27 3 -57 8 -65 10 -8 2 -58 7 -110 10 -52 4 -98 10 -101 13 -3 4 -11 52
-18 107 -7 55 -15 111 -16 125 -2 14 -7 48 -10 75 -4 28 -8 59 -10 70 -1 11
-6 45 -9 75 -4 30 -9 69 -12 85 -3 17 -7 46 -9 65 -6 58 -15 130 -30 235 -8
55 -17 124 -20 154 -3 30 -7 57 -9 60 -2 3 -7 38 -10 76 -4 39 -9 77 -11 85
-2 8 -6 40 -10 70 -3 30 -7 66 -9 80 -3 14 -10 68 -16 120 -7 52 -14 102 -15
110 -2 8 -6 44 -10 80 -4 36 -8 67 -10 70 -2 3 -6 37 -10 75 -4 39 -9 79 -11
89 -2 11 -6 42 -10 70 -3 28 -7 60 -9 71 -1 11 -5 45 -9 75 -4 30 -10 69 -13
85 -5 31 -6 36 -17 140 -4 33 -9 71 -11 85 -7 48 -15 105 -20 150 -3 25 -8 63
-11 85 -3 22 -7 51 -9 65 -2 14 -6 43 -9 65 -3 22 -8 58 -11 80 -3 22 -7 56
-10 75 -2 19 -7 59 -10 88 -4 29 -8 63 -11 75 -2 12 -9 60 -14 107 -6 47 -13
99 -16 115 -2 17 -6 48 -9 70 -3 22 -8 51 -10 65 -2 14 -6 54 -10 90 -3 36 -8
72 -10 80 -2 8 -6 35 -9 60 -10 89 -16 135 -21 160 -2 14 -7 52 -11 85 -3 33
-11 63 -18 67 -8 6 -7 8 2 8 7 0 11 4 7 9 -3 5 -8 31 -10 58 -3 26 -7 62 -10
78 -2 17 -7 53 -10 80 -4 28 -9 62 -11 76 -2 15 -6 47 -9 70 -3 24 -7 60 -10
79 -3 19 -7 55 -10 80 -5 45 -31 235 -41 300 -2 19 -6 51 -8 70 -7 64 -17 135
-21 155 -2 11 -7 49 -10 85 -4 36 -11 83 -16 105 -5 22 -9 57 -9 78 0 20 -3
37 -7 37 -5 0 -8 19 -8 43 -1 40 -10 122 -19 177 -3 14 -9 66 -16 115 -6 50
-13 108 -17 130 -13 86 -10 97 22 108 154 49 437 175 580 257 22 12 60 34 85
48 25 13 59 35 77 48 17 13 34 24 37 24 3 0 26 15 52 33 25 17 53 37 62 42 18
11 21 14 117 86 80 61 90 69 199 164 95 82 226 213 312 311 101 114 264 326
264 343 0 5 4 11 8 13 4 2 28 33 51 71 27 40 51 67 61 67 10 0 100 -21 201
-46 154 -38 504 -124 574 -140 46 -11 71 -17 85 -19 8 -1 22 -5 30 -8 8 -4 26
-9 40 -11 14 -3 52 -12 85 -21 33 -8 71 -18 85 -21 14 -3 60 -14 104 -25 43
-11 85 -18 93 -15 8 3 12 2 9 -2 -4 -7 136 -44 289 -78 6 -1 48 -12 95 -24 47
-11 94 -23 104 -25 11 -3 74 -18 140 -34 67 -17 225 -55 351 -86 127 -30 259
-63 295 -72 36 -9 70 -18 75 -19 6 -1 69 -16 140 -34 72 -18 137 -33 145 -35
8 -2 62 -15 119 -30 58 -14 123 -30 145 -35 23 -5 97 -23 166 -40 168 -42 439
-108 470 -114 14 -3 106 -25 205 -50 99 -25 284 -70 410 -101 127 -30 246 -60
265 -65 44 -12 107 -27 140 -34 14 -3 50 -12 80 -20 30 -8 66 -17 80 -20 14
-3 81 -19 150 -36 69 -17 132 -32 140 -34 18 -4 17 -44 -5 -211 -19 -140 -28
-314 -29 -530 0 -160 9 -393 18 -460 3 -16 7 -55 10 -85 5 -48 13 -111 31
-240 3 -20 8 -47 11 -60 3 -14 7 -36 10 -50 3 -14 12 -59 20 -100 9 -41 18
-86 21 -100 6 -36 52 -209 65 -250 7 -19 12 -39 13 -45 0 -11 21 -77 34 -110
5 -11 16 -45 25 -75 10 -30 26 -75 36 -100 10 -25 31 -78 46 -117 15 -40 31
-73 36 -73 5 0 7 -4 4 -9 -6 -9 44 -134 56 -139 5 -2 8 -8 8 -14 0 -23 148
-311 235 -456 30 -52 60 -98 65 -102 3 -3 14 -22 25 -42 11 -21 23 -38 27 -38
5 0 8 -6 8 -13 0 -7 8 -22 18 -33 9 -10 30 -39 47 -64 35 -53 141 -194 199
-265 23 -27 48 -58 56 -68 205 -256 568 -593 869 -807 51 -36 97 -70 104 -75
7 -6 37 -26 67 -45 30 -19 57 -37 60 -40 6 -8 72 -46 257 -151 56 -32 292
-150 354 -178 30 -13 62 -28 72 -32 70 -36 329 -131 477 -175 164 -50 183 -55
200 -58 8 -2 22 -6 30 -9 55 -20 383 -86 515 -103 28 -3 58 -8 68 -10 10 -2
48 -6 85 -9 37 -4 81 -9 97 -11 164 -22 740 -22 875 0 14 3 54 7 90 10 36 3
74 8 85 10 11 2 47 7 80 10 33 4 67 9 75 11 8 2 31 6 50 9 35 6 62 11 110 21
28 6 62 13 100 20 28 5 175 43 293 74 156 42 360 114 536 189 111 46 326 145
351 161 8 5 40 22 70 38 30 15 57 31 60 34 3 3 15 9 28 13 12 4 22 11 22 16 0
4 11 11 24 14 14 3 31 12 38 19 7 6 29 21 48 31 38 21 262 166 270 175 3 3 28
22 55 41 28 19 55 38 60 42 6 5 48 38 95 74 138 107 286 240 430 384 153 154
173 176 289 315 45 55 91 110 101 122 10 12 27 34 37 50 10 15 26 37 36 48 10
11 28 36 40 55 11 19 24 37 27 40 13 10 150 219 150 228 0 5 6 15 14 21 8 7
21 26 30 44 9 18 21 39 26 47 45 70 181 334 230 445 76 172 91 208 117 280 40
114 84 239 89 255 67 232 104 380 101 397 -2 12 -1 20 3 18 3 -2 12 24 19 58
6 34 14 73 17 87 3 14 7 41 10 60 2 19 6 42 9 50 2 8 7 38 11 65 3 28 8 59 10
70 2 11 7 45 10 75 3 30 7 71 9 90 27 217 26 842 -1 972 -2 12 -6 46 -9 73 -6
75 -31 238 -51 335 -2 8 -6 31 -9 50 -3 19 -12 62 -21 95 -8 33 -17 69 -20 80
-2 11 -6 34 -10 50 -3 17 -10 44 -15 60 -5 17 -18 64 -30 105 -32 111 -96 302
-136 405 -35 88 -51 126 -99 233 -13 29 -24 57 -24 62 0 6 -5 10 -12 10 -6 0
-9 3 -5 6 7 8 -41 106 -57 116 -6 4 -8 8 -4 8 4 0 -11 35 -33 78 -107 202
-286 485 -302 475 -6 -3 -7 -1 -3 5 9 15 -122 194 -136 186 -6 -4 -8 -3 -5 3
7 11 -39 83 -53 83 -6 0 -10 6 -10 13 0 6 -12 26 -28 42 -15 17 -42 48 -61 70
-66 78 -186 209 -210 229 -13 12 -31 29 -40 40 -39 45 -223 215 -312 287 -22
19 -51 43 -62 53 -64 56 -332 250 -396 286 -14 8 -28 17 -31 20 -5 5 -86 58
-135 87 -178 107 -494 264 -661 329 -38 14 -84 33 -103 41 -18 8 -41 17 -50
18 -9 2 -17 4 -18 5 -2 2 -6 3 -10 5 -5 1 -15 5 -23 8 -56 25 -407 128 -484
143 -24 4 -36 7 -121 28 -76 18 -317 58 -433 71 -26 3 -63 8 -82 10 -216 26
-810 27 -970 1 -14 -3 -52 -7 -85 -10 -33 -4 -71 -8 -85 -10 -14 -2 -47 -8
-75 -12 -27 -4 -53 -8 -57 -10 -5 -1 -20 -2 -34 -3 -14 0 -23 -5 -20 -10 4 -5
-2 -7 -13 -4 -29 7 -196 -29 -446 -97 -44 -12 -84 -23 -90 -24 -29 -7 -210
-68 -219 -74 -6 -3 -15 -7 -21 -8 -18 -3 -218 -80 -280 -108 -33 -15 -77 -34
-99 -44 -74 -33 -321 -160 -371 -190 -27 -17 -65 -38 -83 -46 -21 -10 -31 -20
-26 -27 4 -8 3 -9 -4 -5 -15 9 -354 -209 -387 -249 -5 -6 -23 -20 -40 -30 -16
-11 -39 -27 -50 -36 -11 -10 -65 -55 -120 -100 -140 -116 -172 -145 -325 -299
-293 -295 -448 -492 -705 -895 -18 -27 -47 -79 -66 -115 -19 -36 -37 -67 -40
-70 -3 -3 -14 -21 -23 -40 -29 -55 -80 -159 -115 -232 -33 -66 -33 -66 -64
-57 -18 5 -43 11 -57 14 -37 7 -47 9 -290 70 -124 31 -234 58 -245 60 -11 2
-20 4 -20 5 0 1 -7 3 -15 5 -8 2 -26 6 -40 9 -14 3 -43 10 -65 15 -22 5 -50
12 -63 15 -13 3 -32 8 -42 11 -10 3 -31 8 -46 10 -16 3 -126 29 -244 59 -118
31 -230 58 -249 61 -18 3 -37 8 -42 11 -5 3 -19 7 -31 9 -24 5 -75 17 -248 60
-58 15 -112 28 -121 30 -8 2 -99 24 -202 49 -103 25 -197 48 -209 50 -13 3
-48 12 -78 20 -30 8 -66 17 -80 20 -14 3 -45 10 -70 17 -25 6 -52 12 -60 14
-8 2 -42 11 -75 19 -85 21 -229 56 -251 61 -31 6 -669 162 -699 171 -12 3 -48
12 -72 18 -19 4 -242 59 -442 107 -69 17 -133 33 -143 35 -29 6 -49 12 -116
29 -35 9 -71 14 -80 10 -9 -3 -13 -3 -9 2 9 8 -132 45 -145 37 -4 -3 -8 0 -8
5 0 6 -6 11 -12 11 -7 0 -156 35 -330 77 l-318 77 5 26 c4 25 22 159 30 215
19 144 25 501 12 660 -12 143 -17 199 -23 235 -3 19 -7 44 -9 55 -5 33 -15 88
-20 115 -3 14 -7 34 -9 45 -24 116 -39 183 -47 197 -5 10 -8 18 -5 18 3 0 -3
24 -13 53 -10 28 -19 55 -20 60 0 4 -1 8 -2 10 0 1 -2 9 -4 17 -20 89 -208
545 -235 570 -3 3 -15 26 -28 51 -13 25 -45 83 -72 129 -28 46 -50 87 -50 91
0 6 613 631 749 764 175 172 1435 1439 1493 1503 26 29 48 49 48 46 0 -3 18
14 40 37 22 24 447 453 944 953 498 500 903 914 899 919 -3 6 -2 7 4 4 10 -6
1463 1447 1463 1464 0 5 4 9 9 9 5 0 113 105 240 233 127 127 579 583 1005
1011 427 429 772 784 769 789 -3 6 -2 7 4 4 5 -3 137 122 292 277 l283 284 42
-28 c82 -55 272 -155 402 -212 21 -9 59 -26 84 -37 99 -44 398 -144 470 -157
14 -3 39 -9 55 -14 17 -5 41 -11 55 -14 14 -2 45 -9 70 -15 54 -12 220 -38
300 -47 235 -26 656 -26 830 0 14 2 43 7 65 10 115 16 138 20 200 31 17 3 77
17 135 31 58 13 107 24 110 23 3 -1 14 3 26 9 11 6 32 13 45 16 45 8 265 85
350 121 387 165 688 353 1009 630 43 38 243 238 290 290 88 99 140 164 140
173 0 6 4 12 9 14 5 2 35 39 68 83 56 76 90 126 161 240 17 28 35 55 39 61 10
12 43 74 93 174 109 215 179 386 239 585 28 94 65 238 76 295 3 14 7 36 10 50
3 14 7 39 9 57 3 18 7 36 9 40 3 4 8 35 12 68 3 32 8 62 10 65 1 3 6 46 10 95
4 50 9 108 11 130 5 61 5 413 0 475 -3 30 -8 87 -11 125 -3 39 -8 82 -11 98
-2 15 -6 39 -8 55 -3 15 -7 45 -11 67 -5 37 -49 247 -59 287 -44 165 -90 306
-146 449 -55 137 -151 339 -162 339 -4 0 -8 8 -8 18 0 10 -8 27 -17 38 -10 11
-19 26 -21 34 -2 7 -12 26 -23 41 -10 15 -19 30 -19 33 0 4 -8 19 -19 34 -10
15 -35 54 -56 87 -50 79 -220 306 -281 375 -105 118 -258 269 -267 263 -6 -3
-7 -1 -4 4 4 6 -12 27 -36 47 -23 20 -53 46 -67 59 -58 55 -311 247 -325 247
-3 0 -15 8 -26 18 -10 11 -32 25 -47 33 -15 7 -41 24 -58 36 -17 13 -34 23
-38 23 -4 0 -32 16 -62 35 -45 29 -273 144 -369 185 -98 43 -380 143 -437 154
-13 3 -48 12 -80 20 -31 8 -67 17 -80 20 -12 2 -57 11 -98 20 -212 44 -469 69
-695 69 -105 0 -326 -10 -360 -17 -11 -2 -47 -7 -80 -10 -33 -4 -71 -9 -85
-11 -14 -2 -45 -7 -70 -11 -24 -3 -48 -8 -52 -10 -4 -3 -22 -7 -40 -8 -18 -2
-64 -11 -103 -21 -38 -9 -78 -18 -87 -20 -76 -16 -357 -107 -433 -140 -16 -7
-45 -18 -62 -25 -18 -7 -33 -17 -33 -22 0 -5 -4 -6 -10 -3 -17 10 -421 -198
-441 -228 -3 -5 -10 -9 -15 -9 -32 -3 -424 -288 -424 -308 0 -6 -5 -10 -11
-10 -6 0 -27 -15 -47 -32 -72 -66 -288 -285 -332 -337 -25 -30 -52 -62 -61
-71 -31 -33 -139 -179 -139 -189 0 -5 -4 -11 -8 -13 -12 -5 -102 -134 -102
-146 0 -6 -4 -12 -9 -14 -22 -8 -170 -287 -272 -513 -61 -135 -169 -471 -195
-608 -2 -12 -6 -33 -9 -47 -4 -14 -8 -36 -11 -50 -2 -14 -6 -35 -9 -47 -3 -12
-7 -41 -10 -65 -3 -24 -8 -59 -11 -78 -23 -150 -29 -255 -29 -485 0 -200 7
-366 19 -431 2 -10 7 -41 10 -69 16 -112 57 -319 81 -405 9 -30 18 -64 20 -74
7 -29 25 -89 35 -111 5 -11 16 -45 26 -75 25 -83 86 -233 143 -353 27 -59 51
-111 51 -115 1 -4 8 -14 15 -22 7 -8 19 -26 25 -40 6 -14 20 -42 33 -63 79
-134 132 -219 148 -236 11 -11 19 -23 19 -26 0 -3 18 -31 41 -61 l41 -56 -24
-25 c-31 -34 -956 -965 -1399 -1409 -197 -198 -356 -364 -352 -368 5 -4 4 -6
-2 -4 -14 4 -66 -43 -59 -54 3 -5 1 -7 -4 -6 -9 3 -875 -861 -938 -935 -13
-16 -24 -27 -24 -25 0 3 -80 -76 -177 -174 -585 -587 -1380 -1389 -1395 -1405
-9 -10 -47 -48 -85 -85 -266 -259 -1590 -1598 -1585 -1602 3 -3 1 -6 -5 -6 -6
0 -83 -73 -172 -162 -89 -90 -564 -568 -1055 -1062 l-894 -899 -59 39 c-56 38
-58 40 -46 64 27 51 73 159 73 169 0 6 5 11 10 11 6 0 10 4 10 9 0 9 19 53
107 241 19 41 42 91 50 110 9 19 35 76 58 125 23 50 55 117 70 150 15 33 35
76 45 97 10 20 16 39 13 42 -4 3 -1 6 5 6 7 0 12 4 12 9 0 8 22 56 122 271 22
47 47 101 56 120 8 19 34 76 57 125 24 50 52 110 63 135 11 25 48 103 81 173
34 71 61 130 61 132 0 2 21 48 46 102 25 54 61 132 81 173 19 41 41 86 48 100
7 14 15 34 17 45 1 11 6 22 9 25 6 5 83 160 84 170 1 3 16 37 34 75 18 39 41
88 51 110 10 22 43 93 74 158 31 65 56 120 56 122 0 5 109 238 125 267 8 14
15 32 15 39 0 7 6 20 13 28 8 9 21 34 30 56 8 22 37 85 63 140 26 55 48 102
49 105 1 3 18 41 39 85 21 44 63 134 93 200 30 66 65 143 78 170 13 28 25 57
27 65 2 8 6 17 9 20 6 5 33 60 106 220 32 68 91 196 127 272 15 32 32 55 39
53 29 -10 232 -35 337 -41 176 -11 453 -5 540 11 14 2 48 7 75 10 57 6 142 21
200 35 22 6 51 12 65 15 26 4 124 30 175 45 17 5 54 15 83 24 29 8 60 20 69
28 9 7 17 11 17 9 1 -5 75 18 101 32 11 6 25 12 30 13 6 1 40 16 76 33 36 17
71 31 76 31 6 0 16 7 23 15 7 9 15 14 17 11 5 -5 186 93 194 106 3 5 8 9 10 7
2 -1 24 11 49 27 25 16 52 33 61 39 86 54 181 125 289 213 79 65 340 330 380
385 18 26 37 47 42 47 4 0 8 7 8 15 0 8 3 15 8 15 4 0 18 17 32 38 14 20 27
39 30 42 15 14 83 117 142 215 55 93 172 318 173 335 1 3 6 14 12 25 17 31 87
220 111 300 44 145 86 326 97 415 4 30 8 57 10 60 2 3 6 41 10 85 3 44 9 93
11 109 6 35 6 381 0 446 -13 150 -18 189 -31 255 -4 17 -7 37 -7 45 -1 24 -54
261 -65 290 -3 8 -8 24 -10 35 -6 35 -75 230 -84 239 -5 6 -9 16 -9 23 0 32
-179 400 -223 458 -4 5 -38 57 -76 115 -38 58 -109 155 -157 215 -123 153
-364 393 -468 465 -12 8 -34 26 -50 41 -17 15 -41 34 -55 41 -14 7 -33 20 -42
29 -63 63 -577 339 -629 339 -6 0 -18 5 -28 10 -22 13 -151 57 -247 84 -5 1
-30 8 -55 15 -25 7 -53 15 -62 17 -10 2 -28 6 -40 9 -39 9 -171 34 -213 40
-22 4 -51 8 -65 10 -36 6 -136 16 -200 21 -66 5 -324 4 -395 -1 -60 -4 -171
-15 -205 -20 -14 -2 -47 -6 -75 -10 -27 -4 -66 -11 -85 -15 -19 -5 -49 -11
-65 -14 -17 -3 -66 -15 -110 -26 -44 -11 -89 -23 -99 -25 -40 -9 -184 -59
-278 -96 -94 -37 -308 -137 -318 -148 -3 -3 -30 -19 -60 -34 -50 -26 -208
-124 -220 -137 -3 -3 -25 -19 -50 -35 -25 -17 -50 -34 -56 -40 -7 -5 -26 -21
-44 -35 -195 -151 -407 -367 -553 -565 -37 -49 -71 -95 -75 -100 -5 -6 -16
-22 -24 -35 -9 -14 -37 -58 -63 -99 -46 -71 -177 -323 -203 -392 -8 -19 -18
-44 -24 -56 -6 -11 -7 -27 -3 -34 5 -7 4 -10 -2 -6 -6 4 -22 -29 -37 -76 -15
-45 -32 -92 -38 -104 -6 -12 -8 -29 -4 -38 3 -9 2 -13 -4 -10 -6 3 -10 0 -11
-7 -1 -15 -1 -16 -28 -118 -11 -41 -23 -88 -26 -105 -13 -67 -34 -193 -39
-235 -3 -25 -8 -67 -12 -95 -3 -27 -8 -70 -10 -95 -5 -61 -4 -387 1 -430 2
-19 7 -61 10 -92 2 -32 7 -70 9 -85 3 -16 8 -48 11 -73 3 -25 8 -52 10 -60 2
-8 7 -31 10 -50 7 -49 25 -132 32 -150 3 -8 7 -21 9 -29 10 -53 38 -140 43
-137 3 2 6 -8 7 -24 1 -26 55 -181 94 -265 40 -89 132 -273 161 -325 29 -49
152 -240 171 -265 29 -36 147 -184 163 -204 68 -83 357 -358 404 -385 9 -5 18
-12 21 -16 3 -3 31 -26 63 -49 31 -24 57 -47 57 -51 0 -4 -28 -66 -61 -136
-34 -71 -62 -135 -62 -141 0 -7 -4 -13 -9 -13 -4 0 -8 -4 -8 -10 0 -5 -27 -66
-60 -136 -33 -69 -60 -128 -60 -130 0 -2 -31 -69 -70 -150 -38 -80 -70 -147
-70 -149 0 -2 -20 -45 -44 -97 -24 -51 -53 -115 -66 -143 -12 -27 -40 -88 -62
-135 -22 -47 -50 -107 -63 -135 -13 -27 -44 -95 -70 -150 -26 -55 -60 -127
-75 -160 -15 -33 -42 -91 -60 -130 -36 -78 -52 -118 -50 -124 1 -2 -2 -7 -7
-10 -12 -9 -73 -139 -73 -156 0 -8 -3 -15 -7 -15 -5 0 -17 -21 -27 -48 -11
-26 -43 -96 -72 -157 -28 -60 -64 -137 -79 -170 -31 -68 -76 -165 -127 -275
-19 -41 -47 -102 -63 -135 -38 -84 -66 -144 -125 -270 -58 -122 -83 -177 -85
-185 0 -3 -15 -33 -33 -68 -17 -34 -31 -63 -31 -65 0 -1 -17 -40 -39 -87 -112
-239 -130 -279 -124 -284 3 -3 0 -6 -6 -6 -7 0 -12 -4 -12 -10 0 -5 -17 -47
-39 -92 -130 -279 -139 -300 -143 -318 -2 -8 -6 -17 -9 -20 -6 -5 -42 -80
-152 -317 -35 -76 -45 -91 -62 -87 -11 2 -31 6 -45 8 -14 2 -32 7 -40 10 -8 3
-33 8 -54 11 -21 3 -48 7 -60 10 -12 2 -39 7 -60 10 -21 3 -48 7 -60 10 -12 3
-48 7 -81 10 -33 3 -89 8 -125 12 -84 9 -459 10 -575 1 -123 -10 -209 -21
-305 -38 -30 -6 -75 -13 -100 -16 -25 -3 -53 -10 -62 -15 -10 -5 -18 -8 -18
-5 0 2 -24 -2 -52 -10 -29 -7 -60 -14 -68 -14 -9 0 -31 28 -51 68 -56 106
-149 282 -179 337 -15 28 -58 109 -95 180 -38 72 -75 138 -83 148 -8 9 -12 17
-7 17 4 0 3 6 -2 13 -6 6 -36 62 -68 122 -32 61 -70 133 -85 160 -25 46 -46
86 -175 330 -178 337 -206 389 -219 397 -6 4 -7 8 -3 8 4 0 -7 25 -24 56 -17
31 -49 91 -71 133 -42 81 -95 181 -143 271 -17 30 -34 58 -38 61 -5 3 -8 9 -7
13 1 7 -76 163 -90 181 -4 6 -42 78 -85 160 -43 83 -81 155 -85 160 -4 6 -35
62 -68 125 -33 63 -76 147 -97 185 -21 39 -58 108 -83 155 -25 47 -62 117 -82
155 -21 39 -60 113 -88 165 -27 52 -63 120 -79 150 -17 30 -56 105 -88 165
-32 61 -65 124 -75 140 -9 17 -45 84 -80 150 -74 142 -143 272 -178 335 -14
25 -51 95 -82 155 -60 116 -113 215 -160 300 -15 28 -50 93 -77 145 -28 52
-72 136 -98 185 -27 50 -67 126 -90 170 -23 44 -74 141 -114 215 -39 73 -68
137 -63 140 4 4 57 44 117 90 61 46 122 96 136 111 15 15 31 28 37 30 33 13
410 378 502 488 25 29 53 63 63 75 11 11 33 39 50 60 18 21 44 53 58 70 290
351 595 903 759 1371 64 185 127 393 135 452 2 12 6 26 9 31 3 5 8 22 10 38 7
38 11 57 36 178 12 56 24 119 27 141 3 22 8 59 13 82 4 22 7 57 6 77 -1 20 2
37 5 39 4 1 10 43 14 92 4 50 9 108 12 130 2 22 6 163 9 314 3 213 1 277 -9
283 -9 6 -9 8 1 8 7 0 11 3 9 8 -3 4 -8 52 -12 107 -3 55 -8 111 -10 125 -2
14 -7 54 -10 90 -4 36 -9 74 -11 85 -9 42 -13 72 -18 115 -3 25 -8 56 -11 70
-3 14 -10 52 -16 85 -11 63 -79 343 -105 433 -9 28 -20 52 -25 52 -6 0 -7 5
-4 10 8 13 -76 260 -130 385 -8 17 -23 55 -35 85 -41 106 -199 416 -283 556
-107 180 -324 494 -371 539 -6 6 -23 26 -38 47 -15 20 -33 42 -40 50 -7 7 -38
43 -67 78 -56 66 -362 376 -436 441 -35 30 -186 155 -223 184 -7 5 -18 15 -25
20 -71 60 -400 283 -504 342 -298 167 -448 238 -753 357 -125 49 -345 117
-362 112 -10 -2 -16 -1 -14 3 4 6 -118 44 -179 55 -11 3 -72 16 -135 30 -135
30 -344 64 -425 70 -31 3 -60 7 -63 10 -3 3 -12 0 -20 -7 -13 -9 -14 -9 -8 1
5 9 -6 12 -46 13 -29 0 -62 3 -73 5 -22 6 -601 14 -607 9z m12097 -5623 c-3
-3 -11 0 -18 7 -9 10 -8 11 6 5 10 -3 15 -9 12 -12z m42 2 c-3 -3 -12 -4 -19
-1 -8 3 -5 6 6 6 11 1 17 -2 13 -5z m50 -10 c-3 -3 -12 -4 -19 -1 -8 3 -5 6 6
6 11 1 17 -2 13 -5z m53 -10 c0 -2 -9 -4 -20 -4 -11 0 -20 4 -20 9 0 5 9 7 20
4 11 -3 20 -7 20 -9z m55 -14 c13 -5 14 -9 5 -9 -8 0 -24 4 -35 9 -13 5 -14 9
-5 9 8 0 24 -4 35 -9z m155 -50 c41 -15 113 -46 159 -69 89 -44 301 -179 301
-193 0 -4 4 -8 9 -8 25 0 217 -192 305 -305 64 -82 120 -165 111 -165 -2 0
-16 18 -30 40 -14 22 -32 48 -40 58 -7 9 -43 53 -78 97 -95 117 -173 189 -389
355 -15 12 -37 22 -47 23 -11 1 -18 3 -15 6 13 13 -206 122 -332 166 -43 15
-81 29 -84 32 -9 9 54 -9 130 -37z m904 -766 c3 -8 2 -12 -4 -9 -6 3 -10 10
-10 16 0 14 7 11 14 -7z m26 -44 c6 -11 8 -20 6 -20 -3 0 -10 9 -16 20 -6 11
-8 20 -6 20 3 0 10 -9 16 -20z m38 -75 c-3 -3 -9 2 -12 12 -6 14 -5 15 5 6 7
-7 10 -15 7 -18z m-18524 -4873 c3 -5 -1 -9 -9 -9 -8 0 -12 4 -9 9 3 4 7 8 9
8 2 0 6 -4 9 -8z m13441 -19682 c3 -5 1 -10 -4 -10 -6 0 -11 5 -11 10 0 6 2
10 4 10 3 0 8 -4 11 -10z"/>
</g>
</svg>
